<svg width="74" height="59" viewBox="0 0 74 59" fill="none" xmlns="http://www.w3.org/2000/svg">
<path d="M39.8324 2.25504L71.055 20.4503C71.3423 20.6178 71.5809 20.8585 71.7468 21.1484C71.9127 21.4382 72 21.7669 72 22.1016C72 22.4362 71.9127 22.7649 71.7468 23.0547C71.5809 23.3446 71.3423 23.5853 71.055 23.7528L39.8324 41.9481C38.9712 42.4502 38.2562 43.1717 37.7591 44.0404C37.2619 44.9091 37.0002 45.8943 37 46.8972V55.0982C37.0003 55.4322 37.0878 55.7603 37.2537 56.0494C37.4196 56.3385 37.658 56.5786 37.945 56.7454C38.2319 56.9123 38.5574 57.0001 38.8887 57C39.22 56.9999 39.5455 56.912 39.8324 56.745L52.8814 49.1411C53.7429 48.6393 54.4583 47.9178 54.9558 47.0491C55.4532 46.1804 55.7153 45.195 55.7156 44.1919V35.8082C55.7156 34.8048 55.4537 33.8191 54.9562 32.95C54.4587 32.081 53.7432 31.3592 52.8814 30.8572L39.8324 23.2533C38.9707 22.751 38.2554 22.0288 37.7582 21.1594C37.261 20.29 36.9995 19.3041 37 18.3005V3.90176C37.0003 3.56776 37.0878 3.23972 37.2537 2.95059C37.4196 2.66146 37.658 2.42142 37.945 2.25456C38.2319 2.08771 38.5574 1.99992 38.8887 2C39.22 2.00008 39.5455 2.08804 39.8324 2.25504V2.25504ZM34.1676 2.25504L2.94502 20.4503C2.65767 20.6178 2.41907 20.8585 2.2532 21.1484C2.08732 21.4382 2 21.7669 2 22.1016C2 22.4362 2.08732 22.7649 2.2532 23.0547C2.41907 23.3446 2.65767 23.5853 2.94502 23.7528L34.1676 41.9481C35.0288 42.4502 35.7438 43.1717 36.2409 44.0404C36.7381 44.9091 36.9998 45.8943 37 46.8972V55.0982C36.9997 55.4322 36.9122 55.7603 36.7463 56.0494C36.5804 56.3385 36.342 56.5786 36.0551 56.7454C35.7681 56.9123 35.4426 57.0001 35.1113 57C34.78 56.9999 34.4545 56.912 34.1676 56.745L21.1186 49.1411C20.2571 48.6393 19.5417 47.9178 19.0442 47.0491C18.5468 46.1804 18.2847 45.195 18.2844 44.1919V35.8082C18.2844 34.8048 18.5463 33.8191 19.0438 32.95C19.5413 32.081 20.2568 31.3592 21.1186 30.8572L34.1676 23.2533C35.0293 22.751 35.7446 22.0288 36.2418 21.1594C36.739 20.29 37.0005 19.3041 37 18.3005V3.90176C36.9997 3.56776 36.9122 3.23972 36.7463 2.95059C36.5804 2.66146 36.342 2.42142 36.0551 2.25456C35.7681 2.08771 35.4426 1.99992 35.1113 2C34.78 2.00008 34.4545 2.08804 34.1676 2.25504V2.25504Z" stroke="white" stroke-width="3" stroke-linecap="round" stroke-linejoin="round"/>
</svg>
