<svg width="68" height="65" viewBox="0 0 68 65" fill="none" xmlns="http://www.w3.org/2000/svg">
<path d="M18.0001 47.7128H3.95289C3.43497 47.7128 2.93826 47.9794 2.57204 48.4539C2.20581 48.9284 2.00007 49.5719 2.00007 50.2429V60.4061C1.9979 60.7401 2.04681 61.0714 2.14398 61.3808C2.24115 61.6903 2.38465 61.9717 2.5662 62.2089C2.74775 62.4461 2.96376 62.6344 3.20177 62.7629C3.43977 62.8913 3.69505 62.9575 3.95289 62.9575H18.0001M18.0001 47.7128V62.9575M18.0001 47.7128H34M18.0001 47.7128V34.9557C18.0087 34.2921 18.2182 33.6594 18.5835 33.1941C18.9488 32.7287 19.4406 32.468 19.9529 32.4681H34M18.0001 62.9575H34M34 47.7128V62.9575M34 47.7128H50M34 47.7128V32.4681M34 62.9575H50V47.7128M50 47.7128H66M50 47.7128V63H64.0472C64.5651 63 65.0618 62.7334 65.428 62.2589C65.7943 61.7844 66 61.1409 66 60.4698V47.7128M50 47.7128V32.4681M66 47.7128V32.4681M34 32.4681H50M34 32.4681V19.711C34.0086 19.0474 34.2182 18.4147 34.5835 17.9494C34.9488 17.4841 35.4406 17.2233 35.9529 17.2234H50M50 32.4681H66M50 32.4681V17.2234M66 32.4681V17.2234H50M51.9528 2H64.0308C64.5487 2 65.0454 2.26657 65.4116 2.74106C65.7778 3.21556 65.9836 3.85911 65.9836 4.53015V17.2872H50V4.53015C50 3.85911 50.2058 3.21556 50.572 2.74106C50.9382 2.26657 51.4349 2 51.9528 2Z" stroke="white" stroke-width="3" stroke-linecap="round" stroke-linejoin="round"/>
</svg>
